<svg xmlns="http://www.w3.org/2000/svg" width="1365.333" height="1365.333" preserveAspectRatio="xMidYMid meet" version="1.0" viewBox="0 0 1024 1024"><metadata>Created by potrace 1.14, written by Peter Selinger 2001-2017</metadata><g fill="#000" stroke="none"><path d="M2925 8903 c-293 -24 -488 -75 -707 -184 -472 -236 -820 -703 -907 -1220 -40 -237 -43 -399 -38 -2559 4 -2151 4 -2152 47 -2358 132 -631 612 -1135 1235 -1297 243 -63 117 -60 2565 -60 2448 0 2322 -3 2565 60 399 104 753 355 980 695 165 248 255 504 287 820 19 181 19 4348 0 4529 -32 318 -121 573 -281 813 -299 448 -756 711 -1314 757 -116 10 -4318 14 -4432 4z m2395 -2555 c237 -32 497 -166 680 -348 236 -236 362 -542 362 -880 0 -609 -424 -1115 -1026 -1225 -116 -22 -316 -22 -432 0 -757 138 -1208 905 -960 1632 156 459 578 789 1063 832 96 9 195 6 313 -11z" transform="translate(0.000000,1024.000000) scale(0.100000,-0.100000)"/><path d="M4942 6174 c-21 -15 -22 -21 -22 -177 0 -89 -3 -173 -7 -185 -6 -25 -76 -62 -115 -62 -14 0 -66 44 -143 120 -99 98 -126 120 -150 120 -24 0 -50 -21 -142 -113 -92 -92 -113 -118 -113 -142 0 -24 22 -51 120 -150 76 -77 120 -129 120 -143 0 -39 -37 -109 -62 -115 -12 -4 -96 -7 -185 -7 -206 0 -193 13 -193 -200 0 -213 -13 -200 193 -200 89 0 173 -3 185 -7 25 -6 62 -76 62 -115 0 -14 -44 -66 -120 -143 -98 -99 -120 -126 -120 -150 0 -24 21 -50 113 -142 92 -92 118 -113 142 -113 24 0 51 22 150 120 77 76 129 120 143 120 39 0 109 -37 115 -62 4 -12 7 -96 7 -185 0 -206 -13 -193 200 -193 213 0 200 -13 200 193 0 89 3 173 7 185 6 25 76 62 115 62 14 0 66 -44 143 -120 99 -98 126 -120 150 -120 24 0 50 21 142 113 92 92 113 118 113 142 0 24 -22 51 -120 150 -76 77 -120 129 -120 143 0 39 37 109 62 115 12 4 96 7 185 7 206 0 193 -13 193 200 0 213 13 200 -193 200 -89 0 -173 3 -185 7 -25 6 -62 76 -62 115 0 14 44 66 120 143 98 99 120 126 120 150 0 24 -21 50 -113 142 -92 92 -118 113 -142 113 -24 0 -51 -22 -150 -120 -77 -76 -129 -120 -143 -120 -39 0 -109 37 -115 62 -4 12 -7 96 -7 185 0 206 13 193 -200 193 -125 0 -160 -3 -178 -16z" transform="translate(0.000000,1024.000000) scale(0.100000,-0.100000)"/></g></svg>